<?xml version="1.0" standalone="no"?>
<!DOCTYPE svg PUBLIC "-//W3C//DTD SVG 20010904//EN"
 "http://www.w3.org/TR/2001/REC-SVG-20010904/DTD/svg10.dtd">
<svg version="1.0" xmlns="http://www.w3.org/2000/svg"
 width="807.000000pt" height="520.000000pt" viewBox="0 0 807.000000 520.000000"
 preserveAspectRatio="xMidYMid meet">

<g transform="translate(0.000000,520.000000) scale(0.100000,-0.100000)"
fill="#000000" stroke="none">
<path d="M4134 3326 c-3 -8 4 -32 16 -55 15 -31 26 -41 45 -41 23 0 25 -3 25
-50 0 -27 -3 -50 -7 -50 -31 0 -111 36 -119 54 -10 23 -45 43 -92 52 -25 5
-36 1 -57 -22 -38 -41 -80 -120 -108 -201 -19 -57 -32 -79 -61 -102 -82 -65
-141 -168 -174 -301 l-18 -75 -62 -3 -62 -3 0 -114 0 -115 540 0 541 0 -3 113
-3 112 -370 5 -370 5 2 45 c2 25 5 59 8 77 l6 32 45 -16 c38 -13 52 -13 83 -3
34 11 51 7 236 -51 110 -34 210 -62 223 -62 13 1 34 10 46 22 12 12 34 21 47
21 14 0 32 6 41 13 9 6 35 72 58 146 l42 133 -31 32 c-17 18 -31 39 -31 48 0
28 -33 56 -87 73 l-53 17 0 84 c0 81 1 84 23 84 17 0 28 11 45 46 12 25 20 50
17 55 -4 5 -87 9 -191 9 -149 0 -186 -3 -190 -14z m346 -21 c0 -2 -5 -16 -12
-30 -11 -25 -11 -25 -144 -25 l-133 0 -16 30 -16 30 161 0 c88 0 160 -2 160
-5z m-80 -217 c-1 -154 -5 -169 -53 -187 -33 -13 -69 -1 -91 31 -13 18 -16 50
-16 160 l0 138 80 0 80 0 0 -142z m-388 82 c4 -19 5 -51 2 -70 -14 -89 -12
-87 -61 -99 -25 -7 -59 -19 -76 -27 l-30 -16 7 29 c11 43 64 153 92 191 32 41
56 38 66 -8z m52 14 c40 -40 6 -238 -66 -384 -23 -47 -41 -89 -39 -95 1 -5 -1
-7 -4 -3 -4 4 -17 1 -27 -7 -11 -7 -26 -11 -34 -8 -9 3 -4 17 20 51 69 97 132
307 124 412 -3 53 1 59 26 34z m109 -70 l47 -16 0 -74 c0 -88 16 -126 60 -144
73 -30 150 28 150 112 0 39 0 40 33 33 54 -12 80 -33 74 -63 -9 -51 -106 -353
-117 -368 -7 -7 -19 -14 -27 -14 -12 0 -404 119 -410 124 -2 2 13 34 32 72 43
84 71 174 86 277 6 42 15 77 18 77 4 0 28 -7 54 -16z m-252 -216 c-117 -116
-159 -230 -147 -399 6 -93 13 -122 27 -113 5 3 6 30 3 60 l-7 54 359 0 359 0
-2 -87 -1 -88 -514 0 -513 0 -3 88 -3 87 51 0 50 0 -6 -54 c-4 -34 -3 -56 4
-60 12 -7 17 15 27 119 4 33 20 99 36 147 43 131 90 200 179 261 53 37 163 79
169 65 2 -5 -29 -42 -68 -80z m664 12 c18 -19 17 -24 -21 -149 -37 -123 -40
-130 -68 -135 -16 -4 -31 -5 -32 -3 -5 5 90 307 97 307 3 0 14 -9 24 -20z
m-625 -31 c-7 -11 -9 -27 -6 -35 3 -8 2 -13 -3 -10 -4 3 -16 -12 -26 -33 -9
-22 -32 -54 -51 -72 -27 -26 -34 -29 -39 -17 -9 22 24 83 75 141 43 49 69 63
50 26z"/>
<path d="M4292 2998 c-21 -21 -14 -57 13 -70 22 -10 29 -9 47 10 19 18 20 25
10 47 -13 27 -49 34 -70 13z m46 -31 c2 -10 -3 -17 -12 -17 -18 0 -29 16 -21
31 9 14 29 6 33 -14z"/>
<path d="M2363 1990 c-27 -16 -33 -26 -33 -54 0 -40 14 -54 83 -76 38 -13 52
-22 52 -36 0 -12 -8 -20 -22 -22 -13 -2 -23 -7 -23 -12 0 -14 58 9 64 25 7 20
-18 43 -62 54 -20 6 -47 18 -59 26 -43 30 -22 85 38 100 30 7 99 -18 99 -36 0
-7 -6 -8 -17 -3 -35 16 -105 10 -117 -9 -9 -15 -7 -21 8 -33 11 -8 29 -13 40
-13 21 1 21 1 1 6 -61 15 -48 59 14 49 67 -12 75 -11 79 4 3 18 -55 50 -91 50
-12 0 -37 -9 -54 -20z"/>
<path d="M3461 1999 c-36 -14 -20 -20 20 -8 27 9 43 8 72 -4 40 -17 53 -44 15
-32 -60 19 -84 17 -116 -10 -26 -22 -32 -34 -32 -66 0 -58 36 -91 93 -87 39 3
42 5 45 36 3 29 1 32 -26 32 -36 0 -45 9 -29 28 10 13 9 14 -3 10 -8 -2 -15
-13 -15 -24 0 -14 8 -20 33 -22 28 -3 33 -7 30 -25 -4 -31 -55 -35 -91 -7 -33
26 -36 76 -9 111 20 24 55 28 120 14 28 -6 32 -5 32 14 0 38 -83 62 -139 40z"/>
<path d="M4891 1992 c-48 -24 -76 -65 -76 -111 0 -40 21 -91 37 -91 5 0 2 10
-6 22 -9 13 -16 43 -16 69 0 39 5 53 30 78 39 38 85 48 133 27 41 -16 52 -43
15 -31 -13 4 -36 9 -53 11 -25 4 -24 2 10 -11 55 -21 75 -19 75 6 0 13 -11 25
-35 35 -45 18 -73 18 -114 -4z"/>
<path d="M5409 1981 c-16 -16 -29 -36 -29 -44 0 -28 40 -65 82 -76 76 -19 86
-41 31 -62 -14 -5 -24 -12 -21 -15 9 -8 58 15 64 31 10 24 -13 43 -72 60 -42
12 -57 22 -64 41 -25 66 70 108 135 60 25 -18 14 -32 -13 -17 -51 27 -119 0
-95 -37 5 -10 21 -18 34 -19 22 -2 22 -2 -3 8 -16 6 -28 17 -28 25 0 20 46 28
80 14 31 -13 60 -8 60 10 0 18 -63 50 -98 50 -24 0 -42 -9 -63 -29z"/>
<path d="M6368 2003 c-10 -2 -18 -8 -18 -12 0 -5 17 -4 38 2 29 7 45 6 75 -6
40 -17 54 -45 15 -31 -13 4 -43 8 -67 8 -81 1 -118 -80 -65 -143 19 -23 34
-31 59 -31 51 0 65 9 65 41 0 26 -3 29 -35 29 -37 0 -43 8 -22 29 10 11 9 13
-3 9 -8 -3 -15 -13 -15 -24 0 -14 8 -20 33 -22 23 -2 32 -8 32 -22 0 -35 -64
-41 -98 -10 -69 64 -3 160 89 129 63 -20 84 17 25 45 -33 15 -72 19 -108 9z"/>
<path d="M1565 1988 c-3 -8 -4 -63 -3 -124 l3 -109 78 -3 c77 -3 78 -2 75 20
-3 20 -9 23 -55 26 l-52 3 -4 52 -3 52 -2 -57 -2 -58 39 0 c45 0 71 -8 71 -22
0 -5 -30 -8 -67 -6 l-68 3 0 109 c0 75 4 111 12 113 7 3 13 -10 16 -34 l4 -38
-1 40 c-1 29 -6 41 -19 43 -9 2 -19 -3 -22 -10z"/>
<path d="M1831 1888 c-23 -61 -40 -117 -37 -125 9 -21 36 -15 48 12 9 20 18
25 50 25 31 0 41 -5 50 -25 14 -30 48 -34 48 -5 0 23 -40 133 -46 127 -3 -3 4
-29 16 -58 11 -30 20 -60 20 -66 0 -22 -20 -14 -30 12 -8 22 -15 25 -58 25
-42 0 -50 -3 -60 -25 -6 -14 -16 -25 -22 -25 -13 0 -13 11 4 51 7 19 26 67 40
107 15 39 32 72 37 72 5 0 16 -16 24 -37 8 -20 18 -34 20 -31 3 3 -2 21 -10
41 -28 67 -47 51 -94 -75z"/>
<path d="M2065 1988 c-3 -8 -4 -63 -3 -124 3 -101 4 -109 23 -109 15 0 21 9
25 35 10 58 18 65 47 38 25 -23 26 -23 14 -1 -6 12 -16 25 -22 28 -17 11 -48
-24 -51 -58 -2 -17 -9 -32 -15 -35 -10 -3 -13 24 -13 112 0 64 4 116 8 116 4
0 14 -6 21 -12 11 -11 13 -10 9 2 -6 20 -37 25 -43 8z"/>
<path d="M2165 1950 l-50 -51 -6 28 c-6 23 -7 20 -8 -17 l-1 -44 63 62 c34 34
66 62 70 62 18 0 4 -28 -33 -65 l-39 -40 39 -52 c22 -28 40 -57 40 -62 0 -18
-19 -12 -32 9 -7 11 -16 20 -21 20 -4 0 0 -11 9 -25 19 -30 54 -34 54 -6 0 10
-16 39 -35 64 -19 25 -35 48 -35 52 0 3 16 19 35 36 22 19 35 40 35 55 0 39
-31 29 -85 -26z"/>
<path d="M2590 1875 c0 -116 1 -125 19 -125 22 0 31 19 31 66 0 32 2 34 35 34
31 0 35 -3 35 -27 0 -47 11 -73 30 -73 10 0 21 7 24 16 9 23 7 34 -4 34 -5 0
-10 -9 -10 -20 0 -11 -4 -20 -10 -20 -5 0 -10 23 -10 50 l0 50 -55 0 -55 0 0
-50 c0 -27 -4 -50 -10 -50 -6 0 -10 45 -10 115 0 70 4 115 10 115 6 0 10 -22
10 -50 0 -48 1 -50 28 -49 16 1 20 3 10 6 -13 3 -18 14 -18 38 0 46 -9 65 -31
65 -18 0 -19 -9 -19 -125z"/>
<path d="M2715 1977 c-4 -13 -5 -27 -4 -33 4 -25 -3 -43 -18 -47 -11 -3 -7 -5
10 -6 26 -1 27 1 27 49 0 28 5 50 10 50 6 0 10 -33 10 -80 0 -47 4 -80 10 -80
11 0 14 128 4 154 -9 24 -43 20 -49 -7z"/>
<path d="M2834 1986 c-3 -8 -4 -29 -1 -48 3 -29 4 -28 5 10 2 54 15 52 61 -9
18 -24 37 -44 42 -44 4 0 24 21 44 48 20 26 40 47 45 47 6 0 10 -49 10 -116 0
-88 -3 -115 -12 -112 -9 3 -14 31 -16 82 -2 67 -5 76 -17 66 -16 -14 -21 -35
-5 -25 5 3 10 -22 12 -62 3 -60 5 -68 23 -68 19 0 20 7 20 120 0 103 -2 120
-16 123 -11 2 -29 -14 -50 -42 -18 -26 -35 -46 -39 -46 -3 0 -20 20 -38 45
-32 45 -58 57 -68 31z"/>
<path d="M3122 1958 l1 -43 4 38 c7 64 23 41 23 -33 0 -40 4 -70 10 -70 11 0
14 108 4 134 -3 9 -15 16 -25 16 -16 0 -19 -7 -17 -42z"/>
<path d="M3674 1987 c-3 -8 -3 -45 -1 -83 l3 -69 2 78 2 77 50 0 c37 0 55 -5
70 -20 22 -22 27 -69 8 -88 -8 -8 -6 -23 9 -61 15 -36 18 -52 10 -60 -8 -8 -8
-11 1 -11 23 0 24 27 3 68 -19 37 -19 43 -6 69 17 32 12 58 -18 91 -16 17 -31
22 -74 22 -36 0 -55 -4 -59 -13z"/>
<path d="M3991 1982 c-24 -46 -82 -213 -76 -222 12 -20 44 -10 51 15 5 22 12
25 49 25 37 0 44 -3 49 -25 6 -25 39 -35 50 -16 8 12 -40 148 -49 139 -3 -2 4
-28 15 -56 11 -29 20 -59 20 -67 0 -24 -19 -17 -26 10 -6 23 -11 25 -59 25
-48 0 -53 -2 -59 -26 -7 -26 -34 -29 -28 -3 9 41 76 209 83 209 5 0 17 -17 28
-37 24 -45 27 -37 7 12 -16 38 -40 45 -55 17z"/>
<path d="M4184 1987 c-2 -7 -3 -62 -2 -123 l3 -109 44 -3 c84 -6 142 41 143
118 0 23 -2 44 -6 47 -3 4 -6 -15 -6 -40 0 -37 -6 -53 -29 -79 -25 -28 -35
-32 -82 -33 l-54 0 0 110 0 110 38 3 c20 2 52 -4 69 -12 17 -9 33 -14 36 -12
2 3 -10 12 -27 20 -37 20 -120 21 -127 3z"/>
<path d="M4444 1986 c-3 -8 -4 -25 -1 -38 3 -17 5 -15 6 10 l1 32 70 0 c73 0
89 -11 43 -29 l-28 -10 30 2 c23 1 31 7 33 25 3 21 0 22 -73 22 -56 0 -77 -4
-81 -14z"/>
<path d="M5179 1973 c-43 -112 -69 -187 -69 -204 0 -29 38 -25 50 6 8 21 16
25 48 25 32 0 41 -5 50 -25 12 -26 36 -33 47 -14 8 11 -35 139 -46 139 -4 0 4
-29 18 -66 25 -65 24 -96 -2 -60 -8 10 -16 22 -17 27 -4 9 -22 12 -66 10 -25
-1 -35 -7 -42 -26 -10 -26 -30 -34 -30 -12 0 24 76 211 87 214 6 2 17 -12 24
-31 7 -20 16 -36 20 -36 4 0 0 18 -8 40 -19 48 -48 54 -64 13z"/>
<path d="M5646 1991 c-13 -21 7 -41 40 -41 l34 0 0 -101 c0 -98 0 -100 23 -97
20 3 22 9 25 66 2 38 -1 62 -8 62 -6 0 -10 -25 -10 -60 0 -33 -4 -60 -10 -60
-6 0 -10 40 -10 100 0 100 0 100 -25 101 -14 1 -29 3 -35 4 -5 1 -13 3 -16 4
-4 0 -1 8 6 16 8 9 9 15 2 15 -6 0 -13 -4 -16 -9z"/>
<path d="M5768 1993 c70 -4 83 -26 20 -31 -30 -3 -35 -7 -35 -28 0 -13 3 -24
8 -24 5 0 9 9 9 19 0 15 8 21 33 23 24 2 32 8 32 23 0 18 -7 20 -65 21 l-65 0
63 -3z"/>
<path d="M5909 1988 c0 -7 -2 -21 -4 -30 -2 -10 1 -20 6 -24 5 -3 9 9 9 25 0
17 5 31 10 31 6 0 10 -30 10 -70 0 -40 4 -70 10 -70 11 0 14 108 4 134 -7 19
-44 22 -45 4z"/>
<path d="M6024 1986 c-3 -8 -4 -31 -1 -52 l4 -39 1 42 c1 23 6 45 12 48 5 3
26 -17 46 -45 20 -28 38 -49 41 -46 2 2 -12 27 -32 55 -37 51 -61 63 -71 37z"/>
<path d="M6177 1993 c-4 -3 -7 -35 -7 -71 0 -56 -2 -63 -15 -52 -8 7 -15 9
-15 4 1 -12 25 -44 34 -44 3 0 6 36 6 80 0 47 4 80 10 80 6 0 10 -8 11 -17 1
-16 0 -187 -1 -205 -1 -21 -22 0 -76 75 l-59 82 -5 -79 c-6 -98 -27 -116 -33
-29 l-3 58 0 -60 c1 -53 3 -60 21 -60 18 0 21 8 25 69 l5 69 49 -72 c38 -55
55 -71 70 -69 19 3 21 11 24 103 2 55 0 110 -3 123 -5 21 -25 29 -38 15z"/>
<path d="M3396 1948 c-21 -29 -21 -102 0 -138 9 -15 29 -35 44 -44 36 -20 109
-21 138 0 20 14 23 23 20 72 -3 56 -4 57 -33 58 -28 1 -28 1 -2 -3 26 -4 27
-7 27 -57 0 -47 -3 -54 -25 -64 -54 -25 -127 -6 -159 40 -21 29 -20 97 0 126
9 13 14 26 11 28 -3 3 -12 -5 -21 -18z"/>
<path d="M3728 1962 c-31 -6 -19 -19 13 -14 36 5 53 -12 38 -40 -11 -20 -55
-24 -62 -5 -3 7 -6 5 -6 -5 -1 -13 7 -18 28 -18 31 0 61 22 61 44 0 24 -41 46
-72 38z"/>
<path d="M6296 1936 c-20 -43 -20 -79 -1 -117 32 -62 121 -87 186 -53 29 14
30 18 27 72 l-3 57 -35 2 c-34 1 -34 1 -5 -5 27 -6 30 -11 33 -51 3 -37 -1
-48 -20 -63 -48 -37 -132 -14 -168 45 -25 40 -25 63 -1 110 10 20 15 37 11 37
-4 0 -15 -15 -24 -34z"/>
<path d="M4221 1928 c2 -31 2 -31 6 -5 3 21 10 27 29 27 35 0 64 -34 64 -75 0
-41 -29 -75 -64 -75 -21 0 -25 5 -29 38 l-4 37 -1 -42 c-2 -42 -1 -43 31 -43
23 0 41 8 57 25 51 54 15 145 -57 145 -31 0 -33 -2 -32 -32z"/>
<path d="M4480 1926 c0 -34 1 -35 48 -38 26 -2 47 -7 47 -13 0 -5 -21 -11 -47
-13 -47 -3 -48 -4 -48 -37 0 -34 0 -34 52 -37 56 -3 77 -24 31 -31 -26 -4 -26
-4 5 -6 29 -1 33 2 30 22 -3 19 -10 22 -55 25 -48 3 -53 5 -53 27 0 21 5 24
48 27 39 3 47 6 47 23 0 17 -8 20 -47 23 -43 3 -48 6 -48 27 0 14 7 25 18 28
13 4 11 5 -5 6 -20 1 -23 -4 -23 -33z"/>
<path d="M4892 1953 c-7 -3 -19 -18 -28 -35 -31 -61 13 -128 85 -128 21 0 42
5 49 12 9 9 15 9 23 1 21 -21 -35 -46 -92 -41 -30 3 -45 2 -37 -3 20 -13 90
-10 118 4 14 7 25 21 25 32 0 21 -10 23 -75 10 -75 -15 -122 75 -68 132 22 24
22 25 0 16z"/>
<path d="M1880 1910 c-11 -20 -10 -22 4 -17 9 4 16 2 16 -2 0 -5 3 -16 6 -25
4 -11 1 -16 -10 -16 -9 0 -16 5 -16 10 0 6 -4 10 -10 10 -5 0 -10 -7 -10 -15
0 -10 10 -15 30 -15 34 0 37 11 16 60 l-14 33 -12 -23z"/>
<path d="M4007 1924 c-10 -10 -9 -36 2 -30 5 3 12 -1 15 -10 10 -25 7 -34 -9
-34 -8 0 -15 5 -15 11 0 5 -4 7 -10 4 -21 -13 -9 -25 25 -25 19 0 35 3 34 8
-2 21 -35 82 -42 76z"/>
<path d="M5196 1914 c-8 -22 -8 -24 6 -21 7 1 14 -8 16 -20 4 -25 -22 -33 -31
-10 -3 7 -6 5 -6 -5 -1 -13 7 -18 29 -18 34 0 36 7 16 55 -17 39 -21 42 -30
19z"/>
<path d="M2870 1843 c0 -66 -3 -83 -15 -83 -10 0 -15 16 -18 58 l-3 57 0 -60
c1 -53 3 -60 21 -60 18 0 21 8 25 70 l5 70 19 -28 c20 -30 56 -34 64 -7 5 13
3 13 -12 1 -16 -13 -21 -11 -51 25 l-34 39 -1 -82z"/>
<path d="M4444 1833 l1 -78 38 -1 c37 -1 37 -1 2 3 l-34 4 -4 75 -3 74 0 -77z"/>
<path d="M2442 1895 c4 -4 17 -13 29 -19 12 -6 27 -19 33 -29 15 -23 -11 -69
-45 -81 -31 -10 -88 -1 -115 18 -24 18 -10 34 16 18 28 -17 48 -15 24 3 -25
19 -64 19 -64 1 0 -26 50 -56 92 -56 88 0 137 64 91 118 -10 11 -29 23 -43 27
-14 4 -22 4 -18 0z"/>
<path d="M3122 1827 c-2 -76 -1 -78 21 -75 18 2 23 10 25 42 2 25 0 36 -7 31
-6 -3 -11 -19 -11 -36 0 -16 -4 -29 -10 -29 -5 0 -11 33 -13 73 l-3 72 -2 -78z"/>
<path d="M5512 1887 c9 -7 24 -17 33 -22 10 -6 18 -23 18 -39 0 -57 -78 -84
-143 -51 -30 16 -43 42 -15 31 44 -18 51 -18 31 -2 -28 22 -56 20 -56 -4 0
-26 48 -50 100 -50 33 0 48 6 71 29 42 42 38 81 -12 106 -34 18 -50 19 -27 2z"/>
<path d="M5910 1895 c-5 -9 -5 -54 -1 -127 1 -22 37 -24 45 -2 9 24 7 54 -4
54 -5 0 -10 -13 -10 -30 0 -16 -4 -30 -10 -30 -5 0 -10 33 -12 73 -2 39 -5 68
-8 62z"/>
<path d="M3708 1808 c-4 -54 -25 -62 -31 -11 l-4 38 -1 -43 c-2 -40 0 -43 21
-40 18 2 23 10 25 46 3 37 6 42 27 42 18 0 25 -7 30 -30 4 -16 11 -33 17 -37
8 -4 9 0 5 11 -4 10 -10 29 -13 42 -5 19 -13 24 -40 24 -31 0 -33 -2 -36 -42z"/>
</g>
</svg>
