<?xml version="1.0" standalone="no"?>
<!DOCTYPE svg PUBLIC "-//W3C//DTD SVG 20010904//EN"
 "http://www.w3.org/TR/2001/REC-SVG-20010904/DTD/svg10.dtd">
<svg version="1.0" xmlns="http://www.w3.org/2000/svg"
 width="795.000000pt" height="497.000000pt" viewBox="0 0 795.000000 497.000000"
 preserveAspectRatio="xMidYMid meet">

<g transform="translate(0.000000,497.000000) scale(0.100000,-0.100000)"
fill="#000000" stroke="none">
<path d="M4080 3205 c0 -9 9 -34 20 -55 16 -30 26 -40 45 -40 23 0 25 -3 25
-50 0 -27 -3 -50 -7 -50 -23 0 -113 36 -113 45 0 19 -32 42 -77 55 -36 11 -46
11 -65 -2 -33 -22 -86 -115 -118 -207 -20 -59 -36 -87 -61 -108 -87 -73 -145
-171 -178 -303 l-19 -75 -61 -3 -61 -3 0 -114 0 -115 540 0 541 0 -3 113 -3
112 -373 3 -374 2 7 53 c3 28 8 64 11 78 l5 27 51 -16 c39 -11 56 -12 70 -3
10 6 24 11 32 11 8 0 108 -29 222 -64 114 -35 214 -62 223 -59 9 4 24 13 35
22 10 9 37 20 59 26 l42 10 43 139 43 139 -30 31 c-16 17 -33 43 -36 58 -9 34
-18 41 -82 62 l-53 18 0 83 c0 79 1 84 22 87 25 3 74 80 63 98 -4 6 -78 10
-196 10 -163 0 -189 -2 -189 -15z m350 -20 c0 -2 -5 -16 -12 -30 -11 -25 -11
-25 -144 -25 l-133 0 -16 30 -16 30 161 0 c88 0 160 -2 160 -5z m-80 -216 c0
-77 -4 -149 -10 -159 -13 -25 -65 -41 -94 -30 -49 18 -56 44 -56 192 l0 138
80 0 80 0 0 -141z m-394 109 c9 -14 8 -115 -1 -157 -4 -19 -13 -31 -23 -31 -9
0 -43 -11 -75 -24 l-59 -24 7 26 c10 42 63 153 91 189 26 34 47 42 60 21z m58
-14 c11 -11 16 -34 16 -78 0 -163 -124 -443 -185 -420 -10 4 -6 17 19 52 69
97 132 307 124 412 -3 53 1 59 26 34z m109 -70 l47 -16 0 -73 c0 -86 13 -121
51 -141 77 -39 159 18 159 111 0 36 1 36 33 30 57 -13 77 -24 77 -44 0 -18
-90 -320 -111 -373 -14 -34 -25 -34 -125 -4 -246 75 -319 98 -322 101 -2 2 10
27 27 56 40 71 77 189 91 288 7 45 15 81 19 81 4 0 28 -7 54 -16z m-249 -214
c-85 -85 -119 -143 -140 -239 -23 -101 -11 -292 17 -275 5 3 6 30 3 60 l-7 54
359 0 359 0 -2 -72 c-1 -40 -2 -81 -3 -90 0 -17 -31 -18 -515 -18 l-515 0 0
90 0 90 50 0 50 0 -6 -54 c-4 -35 -3 -56 5 -60 6 -4 11 -6 11 -4 0 2 5 42 11
88 21 175 67 290 153 388 27 31 52 57 55 56 3 -1 16 6 29 14 38 25 147 61 151
50 2 -5 -27 -41 -65 -78z m661 10 c18 -20 18 -23 -13 -124 -45 -148 -47 -153
-77 -160 -15 -4 -29 -6 -30 -4 -5 5 89 308 96 308 3 0 14 -9 24 -20z m-640
-65 c-27 -62 -52 -100 -84 -129 -31 -28 -38 2 -11 54 22 44 96 130 111 130 5
0 -2 -25 -16 -55z"/>
<path d="M4242 2878 c-21 -21 -14 -57 13 -70 22 -10 29 -9 47 10 19 18 20 25
10 47 -13 27 -49 34 -70 13z m46 -31 c2 -10 -3 -17 -12 -17 -18 0 -29 16 -21
31 9 14 29 6 33 -14z"/>
<path d="M1515 1825 l0 -65 47 0 c45 0 48 2 48 25 0 16 -6 25 -15 25 -8 0 -15
-4 -15 -10 0 -5 -5 -10 -11 -10 -6 0 -9 18 -8 48 3 44 2 47 -21 50 -24 3 -25
1 -25 -63z"/>
<path d="M1770 1865 c0 -14 -7 -42 -15 -62 -19 -45 -20 -43 11 -43 21 0 25 4
21 20 -4 15 0 20 15 20 15 0 18 -5 13 -20 -6 -17 -2 -20 29 -20 35 0 44 8 29
24 -5 4 -15 28 -23 54 -13 42 -18 47 -47 50 -30 3 -33 1 -33 -23z m40 -30 c0
-8 -4 -15 -10 -15 -5 0 -7 7 -4 15 4 8 8 15 10 15 2 0 4 -7 4 -15z"/>
<path d="M2015 1825 c0 -61 1 -65 23 -65 17 0 22 5 20 18 -2 11 2 20 7 20 6 1
10 -6 10 -16 0 -12 9 -18 33 -20 38 -4 40 7 10 49 -22 29 -22 31 -5 43 26 20
21 38 -10 34 -20 -2 -28 -9 -28 -22 0 -11 -6 -21 -13 -24 -9 -3 -11 3 -6 22 5
22 3 26 -17 26 -23 0 -24 -3 -24 -65z"/>
<path d="M2284 1863 c-7 -27 14 -53 43 -53 7 0 13 -4 13 -10 0 -13 -13 -13
-27 1 -16 16 -45 3 -41 -18 2 -12 15 -18 47 -20 77 -5 100 44 34 73 -22 10
-32 18 -25 21 8 3 19 0 25 -6 18 -18 37 -12 37 12 0 21 -5 24 -50 25 -46 1
-50 -1 -56 -25z"/>
<path d="M2525 1825 c0 -65 0 -65 28 -65 26 0 28 3 23 25 -5 19 -2 25 9 25 11
0 14 -6 9 -25 -5 -22 -3 -25 23 -25 28 0 28 0 28 65 0 64 0 65 -28 65 -24 0
-27 -3 -21 -25 5 -19 2 -25 -11 -25 -13 0 -16 6 -11 25 6 22 3 25 -21 25 -28
0 -28 -1 -28 -65z"/>
<path d="M2785 1825 c0 -60 2 -65 22 -65 19 0 21 4 18 38 l-5 37 11 -37 c14
-49 44 -52 58 -5 l10 32 -2 -30 c-2 -25 2 -30 23 -33 24 -3 25 -1 25 63 l0 65
-31 0 c-26 0 -33 -5 -41 -32 l-10 -33 -7 33 c-7 28 -12 32 -39 32 l-32 0 0
-65z"/>
<path d="M3085 1825 c0 -63 0 -65 25 -65 25 0 25 2 25 65 0 63 -1 65 -25 65
-24 0 -25 -2 -25 -65z"/>
<path d="M3454 1869 c-22 -25 -23 -78 0 -95 10 -7 37 -12 61 -12 40 0 43 2 47
30 3 17 0 32 -7 34 -6 3 -10 17 -7 32 3 26 1 28 -36 29 -28 1 -45 -4 -58 -18z
m66 -24 c9 -11 9 -15 1 -15 -7 0 -11 -8 -9 -17 4 -24 -26 -23 -30 0 -8 41 15
60 38 32z"/>
<path d="M3705 1825 c0 -62 1 -65 24 -65 20 0 22 4 17 25 -4 14 -2 25 4 25 5
0 10 -9 10 -19 0 -20 32 -37 50 -26 5 3 10 13 10 21 0 8 -4 13 -8 10 -4 -2
-13 4 -20 15 -7 11 -8 19 -2 19 5 0 10 9 10 20 0 23 -28 40 -67 40 -28 0 -28
0 -28 -65z m65 25 c0 -5 -7 -10 -15 -10 -8 0 -15 5 -15 10 0 6 7 10 15 10 8 0
15 -4 15 -10z"/>
<path d="M3973 1848 c-6 -24 -14 -53 -18 -65 -6 -20 -4 -23 20 -23 22 0 25 3
20 20 -5 16 -2 20 15 20 17 0 20 -4 15 -20 -5 -17 -2 -20 23 -20 36 0 44 7 31
29 -5 9 -15 34 -23 56 -11 33 -18 41 -42 43 -27 3 -30 -1 -41 -40z m47 -18 c0
-5 -4 -10 -10 -10 -5 0 -10 5 -10 10 0 6 5 10 10 10 6 0 10 -4 10 -10z"/>
<path d="M4225 1824 l0 -66 40 5 c40 6 75 35 75 64 0 26 -47 63 -82 63 l-33 0
0 -66z m70 17 c7 -24 -4 -51 -21 -51 -9 0 -14 12 -14 35 0 38 24 50 35 16z"/>
<path d="M4477 1845 c3 -27 1 -50 -6 -58 -16 -20 -3 -27 51 -27 42 0 48 3 48
21 0 18 -4 20 -30 14 -34 -7 -44 13 -10 22 11 3 20 9 20 14 0 5 -9 9 -20 9
-22 0 -27 15 -8 26 6 4 14 2 16 -4 6 -20 32 -13 32 8 0 17 -7 20 -50 20 l-50
0 7 -45z"/>
<path d="M4886 1871 c-52 -57 19 -142 80 -96 20 15 17 17 -26 19 -18 1 -26 7
-28 25 -5 30 13 50 30 33 20 -20 38 -14 38 12 0 21 -5 24 -39 24 -25 1 -45 -6
-55 -17z"/>
<path d="M5140 1865 c0 -14 -7 -42 -15 -62 -19 -46 -20 -45 13 -41 19 2 26 8
24 21 -2 10 3 17 13 17 12 0 15 -6 10 -20 -6 -18 -2 -20 30 -20 25 0 35 4 32
13 -3 6 -14 36 -23 65 -17 49 -20 52 -51 52 -29 0 -33 -3 -33 -25z m40 -30 c0
-8 -4 -15 -10 -15 -5 0 -7 7 -4 15 4 8 8 15 10 15 2 0 4 -7 4 -15z"/>
<path d="M5390 1875 c-18 -22 -2 -52 33 -65 19 -7 27 -14 19 -17 -8 -3 -19 0
-25 6 -18 18 -37 12 -37 -12 0 -21 5 -24 45 -25 46 0 79 19 72 42 -1 6 -17 18
-35 26 -34 16 -42 30 -17 30 8 0 15 -4 15 -10 0 -5 7 -10 15 -10 9 0 15 9 15
23 0 21 -5 24 -45 25 -26 0 -49 -5 -55 -13z"/>
<path d="M5630 1865 c0 -14 5 -25 10 -25 6 0 10 5 10 10 0 6 5 10 10 10 6 0
10 -16 10 -35 0 -19 -4 -35 -10 -35 -5 0 -10 -7 -10 -15 0 -10 11 -15 35 -15
24 0 35 5 35 15 0 8 -4 15 -10 15 -5 0 -10 16 -10 35 0 19 5 35 10 35 6 0 10
-4 10 -10 0 -5 5 -10 10 -10 6 0 10 11 10 25 0 24 -3 25 -55 25 -52 0 -55 -1
-55 -25z"/>
<path d="M5880 1888 c-1 -2 -2 -31 -3 -66 -2 -60 -1 -62 23 -62 24 0 25 2 25
65 0 61 -1 65 -22 65 -13 0 -23 -1 -23 -2z"/>
<path d="M6065 1825 c0 -64 0 -65 28 -65 27 0 36 13 17 25 -5 3 -10 14 -10 23
0 12 9 7 29 -17 38 -46 61 -38 61 23 0 24 3 51 6 60 5 12 0 16 -21 16 -25 0
-26 -2 -20 -32 l6 -33 -26 33 c-15 18 -36 32 -48 32 -20 0 -22 -5 -22 -65z"/>
<path d="M6346 1871 c-20 -22 -21 -75 0 -92 8 -7 35 -14 60 -15 37 -3 44 0 44
16 0 10 3 25 6 34 4 11 0 16 -12 16 -15 0 -16 2 -6 9 8 5 12 17 10 27 -5 26
-79 30 -102 5z m64 -41 c-6 -4 -8 -15 -4 -24 5 -14 3 -17 -12 -14 -23 4 -30
34 -13 54 9 11 15 12 26 3 9 -8 10 -14 3 -19z"/>
</g>
</svg>
