<?xml version="1.0" encoding="UTF-8"?>
<svg version="1.1" viewBox="0 0 2048 1319" width="807" height="520" xmlns="http://www.w3.org/2000/svg">
<path transform="translate(0)" d="m0 0h2048v1319h-2048z" fill="#FEFEFE"/>
<path transform="translate(1069,471)" d="m0 0h75l4 2-1 7-10 19-2 2-10 1 1 39 24 8 8 7 2 4 1 8 15 15-1 9-14 45-6 20-2 2-22 4-6 7-7 3-8-1-54-17-50-15-12 6-9-1-16-5-3 14-2 22h186l3 2v58l-4 2h-269l-3-1-1-2v-55l1-3 2-1 29-1 6-25 7-21 8-16 10-16 13-14 14-11 9-26 9-20 8-14 7-9 8-6 7-1 15 4 8 4 4 6 2 5 22 7 4 1-1-22-8 1-4-4-10-19-1-5 2-2z" fill="#D5D9DD"/>
<path transform="translate(1011,563)" d="m0 0 1 2-4 6-10 8-16 16-10 15-8 16-5 17-3 20v19l3 24 1 9 7-1v-9l-2-15v-5h179v43l-3 1h-255v-44h21l-2 22v7l7 1 4-33 5-25 6-20 7-16 9-14 8-10 11-11 15-10 14-7z" fill="#FEFEFE"/>
<path transform="translate(1044,526)" d="m0 0 9 2 15 5 1 1 1 36 4 9 6 7 10 5h14l10-5 7-8 3-9 1-18 10 2 13 5 3 3v7l-9 30-17 55-5 10-6 1-27-8-64-20-11-3-1-2 9-15 10-24 7-23 4-20z" fill="#FEFEFE"/>
<path transform="translate(1078,502)" d="m0 0h38v66l-3 7-4 5-7 3h-11l-7-4-4-5-2-6z" fill="#FEFEFE"/>
<path transform="translate(1320,810)" d="m0 0 6 1 6 12 3 8 1 5 4 8 8 23v7l-5 2-6-1-4-6-2-6-19-1-3 10-4 4-8-1-2-2 1-9 18-48 4-5z" fill="#FEFEFE"/>
<path transform="translate(1017,810)" d="m0 0 6 1 6 12 2 6v7l3 1 11 29v7l-5 3-7-1-5-12h-18l-6 12-7 1-4-2-1-7 17-46 4-8z" fill="#FEFEFE"/>
<path transform="translate(478,810)" d="m0 0h5l4 5 12 32 7 18 1 7-3 3-7 1-4-4-4-9h-18l-6 12-7 1-5-5 3-12 10-26 7-18z" fill="#FEFEFE"/>
<path transform="translate(723,810)" d="m0 0 5 1 7 8 10 14v2l5-5 10-14 4-5 5-1 5 3 1 3v57l-6 3-6-1-2-3-1-32-3 3h-2l-1 6-5 5-7-1-7-8-3-4-1 32-5 3-6-1-3-5v-28h4l1 5 1 24h3l1-41 4 1 10 13 4 5h3l7-9 7-10h3l1 42 4-1v-56l-5 2-14 19-4 5-3-1-10-14-8-10-4-1v15l-1 5h-4v-18l3-5z" fill="#D5D9DD"/>
<path transform="translate(1530,811)" d="m0 0h6l5 4 13 18 4 8 5 5 1-29 3-5 7-1 4 4v57l-4 4-7-1-7-8-12-17-6-8-1 28-3 5-6 1-4-2-1-2v-29h4l1 28 4 1 1-42 4 2 14 19 13 18 2 2h3v-54l-4-1v15l-1 26-4-2-7-10-21-28-3-1-1 1-1 19h-4v-21z" fill="#D5D9DD"/>
<path transform="translate(1010,505)" d="m0 0h4l3 7v26l-2 13-2 3-20 6-13 5h-2l3-10 8-20 10-18 9-10z" fill="#FEFEFE"/>
<path transform="translate(525,811)" d="m0 0h7l4 5-1 4-3-1-1-4h-5l1 56 4 1v-13l2-5 8-8 3-1 9 12 4 6 7 8 4 1-2-6-18-24 1-4 18-18 1-5-5 2-27 27-4 2-1-17 1-5 4 1 1 12 7-8 16-16 3-2h7l3 5-1 5-7 8-11 11 2 5 11 14 6 9-1 5-5 3-6-1-8-10-10-13-2-1-2 4-2 2-2 16-4 3-7-1-2-2v-59z" fill="#D5D9DD"/>
<path transform="translate(1026,510)" d="m0 0 5 1 3 6 1 6v11l-3 22-6 24-8 21-8 16-9 13-7 6-5 1-2-1 2-4 7-9 9-16 8-19 7-23 4-19 2-16z" fill="#FEFEFE"/>
<path transform="translate(661,810)" d="m0 0 5 1 3 3 1 3v20h7v3l-2 1h-8l-2-1v-25h-5v57h5v-25l1-1h26l1 15v11l4-1 1-10h4v12l-5 3-7-1-2-4v-21h-18v18l-2 6-4 2-7-1-2-5v-54l2-4z" fill="#D5D9DD"/>
<path transform="translate(1157,578)" d="m0 0 8 6 2 4-18 58-2 5-13 1 3-12 19-61z" fill="#FEFEFE"/>
<path transform="translate(1057,480)" d="m0 0h79l-2 6-3 6h-67l-6-9z" fill="#FEFEFE"/>
<path transform="translate(1620,809)" d="m0 0h16l10 4 6 5 1 5-4 5-5 1-11-5h-10l-8 4-5 6-1 3v11l4 7 5 4 5 2h10l4-2 1-8h-13l-4-4v-7l3-3h6l-2 4-2 1-1 4h13l4 1 1 4v8l-4 5-4 2-8 1-8-2-8-5-5-6-2-4v-14l4-8 8-7 6-2h12l13 5-1-5-8-4-3-1h-14l-10 3-1-4z" fill="#D5D9DD"/>
<path transform="translate(883,809)" d="m0 0h15l11 4 5 4 1 7-5 5-5-1-9-4h-10l-9 4-5 7v14l4 6 6 5 3 1h10l5-2 1-8h-14l-4-5 1-7 2-2 5-1 1 4-4 1 1 5h12l4 2v13l-5 4-3 1h-13l-8-4-5-4-4-7-1-4v-9l4-9 7-7 8-3h11l12 5 2 1v-5l-6-4-7-2h-13l-7 2h-4v-3z" fill="#D5D9DD"/>
<path transform="translate(1017,810)" d="m0 0 6 1 6 12 2 6v7l3 1 11 29v7l-5 3-7-1-5-12h-18l-6 12-7 1-4-2-1-7 17-46 4-8zm1 4-3 3-15 40-4 11 1 4 5-1 5-12h24l5 12 4 1 1-5-10-27-4-11-6-14z" fill="#D5D9DD"/>
<path transform="translate(1320,810)" d="m0 0 6 1 6 12 3 8v3l-4-1-5-11-3-7-4 2-18 48-1 6h4l5-12 1-1h24l6 13h3l-1-7-10-27 3-2 3 4 9 24 1 4v7l-5 2-6-1-4-6-2-6-19-1-3 10-4 4-8-1-2-2 1-9 18-48 4-5z" fill="#D5D9DD"/>
<path transform="translate(399,811)" d="m0 0h7l3 3v18l-4-1v-16h-5v57h34v-5h-28l-1-1v-30h4v26h23l5 2 1 2v7l-1 2h-40l-2-7v-52l2-4z" fill="#D5D9DD"/>
<path transform="translate(478,810)" d="m0 0h5l4 5 12 32 7 18 1 7-3 3-7 1-4-4-4-9h-18l-6 12-7 1-5-5 3-12 10-26 7-18zm1 4-3 4-14 37-4 11v5l4 1 4-8 2-5h24l5 12 5 1-1-9-9-24-3-9-6-14z" fill="#D5D9DD"/>
<path transform="translate(1382,809)" d="m0 0h15l14 7 2 3v6l-3 3h-6l-10-5h-9l-5 3 1 5 7 3 5 2v2l-5 1-10-4-3-3-1-5 3-5 5-4h13l11 5 3 1-2-5-8-4-3-1h-13l-8 4-4 5v10l4 5 9 4 16 5 6 5 1 6-5 6-7 3h-7l1-4 10-3 3-5-3-3-16-5-10-4-7-8-1-10 4-8 8-6z" fill="#D5D9DD"/>
<path transform="translate(1068,810)" d="m0 0h10l11 2 9 5 4 4v2l-5-1-6-4-6-2-20-1 1 56h18l10-4 7-7 4-9v-16l-1-5h4l3 8v10l-3 10-4 6-5 5-8 5-12 2-17-1-2-7v-50l2-6z" fill="#D5D9DD"/>
<path transform="translate(607,809)" d="m0 0h14l9 4 6 4 2 5-3 5-1 1-7-1-9-4h-9l-5 3 1 5 8 3 4 1-1 4-10-2-7-6v-6l4-5 4-2h12l14 6-2-5-8-4-3-1h-13l-8 4-4 6v8l4 6 12 5 12 3 6 4 2 3v6l-5 5-7 3h-6v-4l10-3 3-2-1-5-10-4-13-4-8-5-4-6v-11l5-8 9-5z" fill="#D5D9DD"/>
<path transform="translate(1136,820)" d="m0 0h11l1 4h-8v13h22l3 3v7l-3 3h-22l1 12h21l5 2 2 6-2 5h-16l1-3h12v-5h-28v-21h25v-5h-23l-2-1z" fill="#D5D9DD"/>
<path transform="translate(867,818)" d="m0 0h2l-1 5-5 8-2 13 2 10 5 8 7 6 9 3h13l10-4 3-1v-25h-13l-2-1v-3l10-1 7 1 3 4v25l-5 5-9 4-11 1-13-2-10-6-7-8-4-11v-13l5-12 4-5z" fill="#D5D9DD"/>
<path transform="translate(1603,819)" d="m0 0 4 1-7 11-1 4v15l3 8 6 7 9 5 4 1h14l9-4 3-3v-22l-14-2-1-3h17l3 3 1 8v14l-3 7-8 5-9 2-16-1-10-5-6-5-6-10-2-7v-9l3-10 5-8z" fill="#D5D9DD"/>
<path transform="translate(939,810)" d="m0 0h13l10 2 6 4 5 8 1 3v10l-5 8 1 6 7 16-1 6-2 2h-5l3-6-6-16-3-6 2-5 3-4 1-9-3-7-5-5-12-2h-14l-1 37h-4v-37l4-4z" fill="#D5D9DD"/>
<path transform="translate(1248,809)" d="m0 0h15l11 4 5 4 1 7-5 5-6-1-8-4-10-1-1-4h11l9 4 4 1 1-4-6-4-7-2h-14l-9 4-8 7-4 8-1 5v9l3 9 5 8-1 4-6-5-5-10-1-3v-15l4-10 8-9 12-6z" fill="#D5D9DD"/>
<path transform="translate(1094,553)" d="m0 0 9 1 6 7v10l-6 7-3 1h-7l-6-4-3-5v-8l4-6z" fill="#D5D9DD"/>
<path transform="translate(1246,820)" d="m0 0h2l-1 4-8 7-3 8 1 11 5 7 8 4h10l9-4h8l3 5-1 6-5 4-8 3h-21l-7-3v-4l10 3h15l10-4 2-2-1-4-13 5h-12l-10-5-5-6-3-7v-10l3-8 8-8z" fill="#D5D9DD"/>
<path transform="translate(1434,811)" d="m0 0h6l-2 4h-2v5h18l1 51h4l1-30h4v31l-2 3-7 1-4-2-1-2v-48h-16l-3-4v-5z" fill="#D5D9DD"/>
<path transform="translate(941,820)" d="m0 0h15l5 3 3 5v7l-4 5-4 2-12 1-4-2v-20z" fill="#D5D9DD"/>
<path transform="translate(1072,820)" d="m0 0h10l8 3 5 4 5 8 1 4v9l-3 8-5 5-6 4-7 2h-9l-1-3v-19h4l1 18 13-4 5-5 2-3 1-9-3-9-4-5-9-3-5-1v8l-1 7h-4v-17z" fill="#D5D9DD"/>
<path transform="translate(1395,837)" d="m0 0 8 1 7 4 4 5 2 4v9l-3 6-8 7-5 2-6 1h-9l-9-2-10-6-3-5 2-6 1-1h7l11 6v4l-5-1-11-6 2 6 8 4 7 2h11l8-3 6-7 1-8-3-6-8-5-5-3z" fill="#D5D9DD"/>
<path transform="translate(620,836)" d="m0 0 10 3 8 7 2 4v11l-6 9-10 5-6 1h-8l-9-2-9-5-4-4v-6l3-3h7l11 6v4l-6-1-7-4-4-1 1 4 12 6 4 1h12l10-5 4-7v-7l-3-5-8-5-5-3z" fill="#D5D9DD"/>
<path transform="translate(694,810)" d="m0 0 5 1 3 4 1 3v38l-5 1-1-41-4-1v24l-3 2h-9l-1-4 2-1h5l1-21 4-4z" fill="#D5D9DD"/>
<path transform="translate(1e3 586)" d="m0 0 2 1-9 20-10 16-8 8h-5l-1-3 6-12 8-12 14-15z" fill="#FEFEFE"/>
<path transform="translate(950,848)" d="m0 0h7l3 5 5 15v4l-4-1-5-13-1-4-11-1v19l-2 3-8 1-4-4v-16l4-1 1 17 4-1 1-22z" fill="#D5D9DD"/>
<path transform="translate(1134,810)" d="m0 0h28l5 2 2 4-1 6-3 2-11 1-2-1 1-4 11-1v-4h-34v15h-4v-15l3-4z" fill="#D5D9DD"/>
<path transform="translate(1449,810)" d="m0 0h27l5 2 1 1v9l-3 2h-15v12h-4v-15l1-1 17-1 1-4h-34v-4z" fill="#D5D9DD"/>
<path transform="translate(1504,810)" d="m0 0 6 2 2 3v35h-4l-1-3v-32l-4 1-1 16h-4v-18l3-3z" fill="#D5D9DD"/>
<path transform="translate(796,810)" d="m0 0 6 2 2 3v35h-4l-1-6v-29l-4 1-1 16h-4v-18l3-3z" fill="#D5D9DD"/>
<path transform="translate(1320,829)" d="m0 0 4 1 7 20v2h-19l1-5z" fill="#D5D9DD"/>
<path transform="translate(1498,835)" d="m0 0h4l1 36h4l1-17 4 1v17l-2 3-8 1-4-4z" fill="#D5D9DD"/>
<path transform="translate(790,835)" d="m0 0h4l1 36h4l1-17 4 1v17l-2 3-7 1-5-3z" fill="#D5D9DD"/>
<path transform="translate(479,829)" d="m0 0 3 1 7 19v3h-18l1-7 6-15z" fill="#D5D9DD"/>
<path transform="translate(1017,829)" d="m0 0h3l5 12 3 8v3h-18l1-7z" fill="#D5D9DD"/>
<path transform="translate(1126,833)" d="m0 0h4l1 39h16v3h-19l-2-3z" fill="#D5D9DD"/>
<path transform="translate(946,824)" d="m0 0h8l5 3 1 7-4 4-10 1-2-1-2-9 2-4z" fill="#FEFEFE"/>
<path transform="translate(480,838)" d="m0 0 2 3 2 7h-7l-1-1v-6z" fill="#FEFEFE"/>
<path transform="translate(1018,837)" d="m0 0 3 4 1 7h-7v-7z" fill="#FEFEFE"/>
<path transform="translate(1321,837)" d="m0 0 2 2 2 9h-7v-7z" fill="#FEFEFE"/>
<path transform="translate(1095,563)" d="m0 0 5 1 1 3-2 3h-5v-6z" fill="#FEFEFE"/>
</svg>
